<svg width="21" height="21" viewBox="0 0 21 21" fill="none" xmlns="http://www.w3.org/2000/svg">
<path d="M10.651 0.249878C7.91363 0.249878 5.68662 2.47689 5.68662 5.21423V8.19284H4.69375C3.59861 8.19284 2.70801 9.08345 2.70801 10.1786V18.1215C2.70801 19.2167 3.59861 20.1073 4.69375 20.1073H16.6082C17.7033 20.1073 18.5939 19.2167 18.5939 18.1215V10.1786C18.5939 9.08345 17.7033 8.19284 16.6082 8.19284H15.6153V5.21423C15.6153 2.47689 13.3883 0.249878 10.651 0.249878ZM16.6082 10.1786L16.6102 18.1215H4.69375V10.1786H16.6082ZM7.67236 8.19284V5.21423C7.67236 3.57202 9.00876 2.23562 10.651 2.23562C12.2932 2.23562 13.6296 3.57202 13.6296 5.21423V8.19284H7.67236Z" fill="#787878"/>
</svg>
