<svg width="13" height="14" viewBox="0 0 13 14" fill="none" xmlns="http://www.w3.org/2000/svg">
<path fill-rule="evenodd" clip-rule="evenodd" d="M7.01493 0.818049C6.96954 0.715079 6.89692 0.627874 6.80567 0.566751C6.71441 0.505628 6.60834 0.473145 6.5 0.473145C6.39166 0.473145 6.28559 0.505628 6.19433 0.566751C6.10308 0.627874 6.03046 0.715079 5.98507 0.818049L4.35748 4.51029L0.500606 4.98933C0.392998 5.00263 0.291283 5.04792 0.207498 5.11984C0.123713 5.19177 0.0613656 5.28731 0.0278354 5.39516C-0.00569488 5.50301 -0.00900466 5.61866 0.0182977 5.72842C0.0456001 5.83818 0.102372 5.93746 0.181894 6.0145L3.03443 8.77478L2.27734 12.7638C2.25631 12.875 2.26614 12.9902 2.30567 13.0957C2.34519 13.2013 2.41276 13.2928 2.50038 13.3594C2.588 13.426 2.69201 13.465 2.80011 13.4717C2.90822 13.4784 3.0159 13.4525 3.11042 13.3972L6.5 11.411L9.88958 13.3972C9.98416 13.4528 10.092 13.4788 10.2002 13.4721C10.3085 13.4655 10.4127 13.4265 10.5004 13.3598C10.5882 13.2931 10.6558 13.2014 10.6953 13.0957C10.7348 12.9899 10.7445 12.8746 10.7232 12.7632L9.96614 8.77537L12.8181 6.0145C12.8976 5.93746 12.9544 5.83818 12.9817 5.72842C13.009 5.61866 13.0057 5.50301 12.9722 5.39516C12.9386 5.28731 12.8763 5.19177 12.7925 5.11984C12.7087 5.04792 12.607 5.00263 12.4994 4.98933L8.64195 4.5097L7.01493 0.818049Z" fill="#FAC50A"/>
</svg>
